<?xml version="1.0" standalone="no"?><!DOCTYPE svg PUBLIC "-//W3C//DTD SVG 1.1//EN" "http://www.w3.org/Graphics/SVG/1.1/DTD/svg11.dtd"><svg t="1665389083886" class="icon" viewBox="0 0 1024 1024" version="1.1" xmlns="http://www.w3.org/2000/svg" p-id="15540" xmlns:xlink="http://www.w3.org/1999/xlink" width="90" height="90"><path d="M540.2 244.4c-12.1-22.5-44.3-22.5-56.4 0L64.5 1024h59.1c12.1 0 23.2-6.9 28.6-17.7l71-142.3h577.6l71 142.3c5.4 10.9 16.5 17.7 28.6 17.7h59.1L540.2 244.4z m-42.3 108.9c6-11.2 22.1-11.2 28.2 0L628.7 544H395.3l102.6-190.7zM360.9 608h170.2L284.2 750.5 360.9 608z m-34.4 192L659 608l3.1-1.8 0.9 1.8 103.3 192H326.5zM669.9 146.7l-52.6 36.4C632 204.4 640 229.6 640 256s-8 51.6-22.7 72.9l52.6 36.4c21.5-31 34.1-68.7 34.1-109.3s-12.6-78.3-34.1-109.3z m-315.8 0c-21.5 31-34.1 68.7-34.1 109.3s12.6 78.3 34.1 109.3l52.6-36.4C392 307.6 384 282.4 384 256s8-51.6 22.7-72.9l-52.6-36.4zM762.4 82.6L709.8 119c9.1 13.3 16.8 27.4 23.1 42.4 12.7 29.9 19.1 61.7 19.1 94.6 0 32.8-6.4 64.6-19.1 94.6-6.3 14.9-14 29.1-23.1 42.4l52.6 36.4C796.2 380 816 320.3 816 256s-19.8-124-53.6-173.4z m-452.2 33.7l-52.6-36.4C222.5 129.7 202 190.5 202 256s20.5 126.3 55.5 176.2l52.6-36.4c-9.9-14.1-18.3-29.2-25.1-45.2-12.6-30-19-61.8-19-94.6s6.4-64.7 19.1-94.6c6.7-16 15.1-31.1 25.1-45.1zM881.8 0l-52.6 36.4c14.4 21 26.7 43.5 36.7 67.1 20 47.3 30.2 97.6 30.2 149.5S886 355.1 865.9 402.5c-10.7 25.2-23.9 49-39.5 71.2L879 510c51.1-72.8 81-161.4 81-257 0-93.9-28.9-181-78.2-253zM128 253c0-51.9 10.1-102.2 30.2-149.5 10-23.7 22.3-46.1 36.7-67.1L142.2 0C92.9 72 64 159.1 64 253c0 95.6 30 184.3 81 257l52.6-36.4c-15.6-22.2-28.8-46-39.5-71.2-20-47.3-30.1-97.5-30.1-149.4z" p-id="15541" fill="#2b85fb"></path></svg>