<svg t="1665387148825" class="icon" viewBox="0 0 1024 1024" version="1.1" xmlns="http://www.w3.org/2000/svg" p-id="17967" x="14" y="7" width="90" height="90"><path d="M475.648 699.904c-21.504 21.504-21.504 55.296 0 76.8 10.752 10.752 23.552 14.848 38.4 14.848s27.648-6.144 38.4-14.848c21.504-21.504 21.504-55.296 0-76.8-18.944-21.504-55.296-21.504-76.8 0z m153.6-151.552c-29.696-16.896-61.952-27.648-96.256-31.744H496.64c-34.304 2.048-68.096 12.8-96.256 31.744-14.848 8.704-29.696 21.504-42.496 31.744l-6.144 6.144 66.048 66.048 6.144-6.144c19.456-19.456 40.448-29.696 66.048-36.352 14.848-2.048 31.744-2.048 47.104 0 25.6 4.096 49.152 16.896 66.048 36.352l6.144 6.144 66.048-66.048-6.144-6.656c-10.24-12.288-23.04-22.528-39.936-31.232z" fill="#2b85fb" p-id="17968"></path><path d="M795.648 456.704c-47.104-47.104-104.448-80.896-168.448-100.352-72.704-21.504-151.552-21.504-226.304 0C336.896 375.296 279.552 409.6 232.448 456.704l-6.144 6.144 66.048 66.048 6.144-6.144c40.448-40.448 89.6-68.096 144.896-80.896 47.104-10.752 91.648-10.752 138.752 0 55.296 12.8 106.496 40.448 144.896 80.896l6.656 6.144 66.048-66.048-4.096-6.144z" fill="#2b85fb" p-id="17969"></path><path d="M144.896 605.696c-4.096-19.456-4.096-40.448-4.096-61.952 0-68.096 19.456-132.096 51.2-187.904C234.496 281.6 303.104 224.256 384 192c12.8-4.096 27.648-8.704 40.448-12.8 14.848 36.352 51.2 59.904 91.648 59.904s76.8-25.6 91.648-59.904c4.096-12.8 8.704-25.6 8.704-38.4 0-8.704 0-14.848-2.048-21.504-12.8-42.496-51.2-76.8-100.352-76.8-47.104 0-87.552 34.304-96.256 76.8l-44.544 12.8c-100.352 34.304-183.296 104.448-234.496 194.048-36.352 64-59.904 138.752-59.904 217.6 0 27.648 2.048 55.296 8.704 82.944 16.896-10.24 36.352-16.384 57.344-20.992z m347.648-494.592c6.144-4.096 12.8-6.144 21.504-6.144 8.704 0 14.848 2.048 21.504 6.144 10.752 6.656 16.896 19.456 16.896 31.744 0 10.752-4.096 21.504-12.8 29.696-6.656 6.144-14.848 10.752-25.6 10.752s-19.456-4.096-25.6-10.752c-8.704-6.144-12.8-16.896-12.8-29.696 0-14.848 6.656-25.6 16.896-31.744z m260.608 722.944c-64 53.248-147.456 85.504-236.544 85.504s-173.056-31.744-236.544-85.504c-10.752-8.704-21.504-19.456-31.744-29.696 12.8-16.896 21.504-36.352 21.504-59.904 0-55.296-45.056-100.352-100.352-100.352-4.096 0-8.704 0-12.8 2.048-21.504 2.048-40.448 12.8-55.296 25.6-19.456 19.456-32.256 45.056-32.256 72.704 0 55.296 44.544 100.352 100.352 100.352 10.752 0 19.456-2.048 27.648-4.096 10.752 10.752 21.504 21.504 34.304 31.744 76.8 66.048 177.152 106.496 285.696 106.496s208.896-40.448 285.696-109.056c-19.968-5.632-36.864-18.944-49.664-35.84zM204.8 755.2c-4.096 16.896-19.456 29.696-38.4 29.696-6.144 0-12.8-2.048-19.456-4.096-10.752-6.144-19.456-19.456-19.456-34.304 0-21.504 16.896-38.4 38.4-38.4 4.096 0 8.704 0 10.752 2.048 14.848 4.096 27.648 19.456 27.648 36.352v8.704h0.512z m725.504-80.896c4.096-14.848 8.704-29.696 10.752-45.056 4.096-27.648 8.704-55.296 8.704-82.944 0-78.848-21.504-153.6-59.904-217.6-51.2-89.6-136.704-159.744-234.496-194.048V143.36c0 19.456-4.096 36.352-10.752 53.248 80.896 29.696 149.504 89.6 192 164.352 31.744 55.296 51.2 119.296 51.2 187.904 0 21.504-2.048 40.448-4.096 59.904-2.048 14.848-6.144 27.648-8.704 42.496-4.096 0-8.704-2.048-12.8-2.048-55.296 0-100.352 44.544-100.352 100.352 0 21.504 8.704 42.496 19.456 59.904 12.8 16.896 29.696 29.696 49.152 36.352 8.704 2.048 19.456 4.096 29.696 4.096 55.296 0 100.352-45.056 100.352-100.352 3.584-32.768-9.216-58.368-30.208-75.264z m-49.152 106.496c-4.096 2.048-10.752 4.096-16.896 4.096-19.456 0-34.304-12.8-38.4-29.696v-8.704c0-16.896 10.752-31.744 25.6-36.352 4.096-2.048 8.704-2.048 12.8-2.048 21.504 0 38.4 16.896 38.4 36.352v2.048c-0.512 15.36-8.704 27.648-21.504 34.304z" fill="#2b85fb" p-id="17970"></path></svg>